{
    "asset" : {
        "generator" : "Khronos glTF Blender I/O v1.4.40",
        "version" : "2.0"
    },
    "scene" : 0,
    "scenes" : [
        {
            "name" : "Scene",
            "nodes" : [
                0
            ]
        }
    ],
    "nodes" : [
        {
            "mesh" : 0,
            "name" : "Nav-Mesh",
            "scale" : [
                11.144256591796875,
                11.144256591796875,
                11.144256591796875
            ],
            "translation" : [
                4.55544900894165,
                0.053462088108062744,
                -4.569046497344971
            ]
        }
    ],
    "meshes" : [
        {
            "name" : "Nav-Mesh",
            "primitives" : [
                {
                    "attributes" : {
                        "POSITION" : 0,
                        "NORMAL" : 1,
                        "TEXCOORD_0" : 2
                    },
                    "indices" : 3
                }
            ]
        }
    ],
    "accessors" : [
        {
            "bufferView" : 0,
            "componentType" : 5126,
            "count" : 77,
            "max" : [
                1,
                0,
                1
            ],
            "min" : [
                -1,
                0,
                -1
            ],
            "type" : "VEC3"
        },
        {
            "bufferView" : 1,
            "componentType" : 5126,
            "count" : 77,
            "type" : "VEC3"
        },
        {
            "bufferView" : 2,
            "componentType" : 5126,
            "count" : 77,
            "type" : "VEC2"
        },
        {
            "bufferView" : 3,
            "componentType" : 5123,
            "count" : 213,
            "type" : "SCALAR"
        }
    ],
    "bufferViews" : [
        {
            "buffer" : 0,
            "byteLength" : 924,
            "byteOffset" : 0
        },
        {
            "buffer" : 0,
            "byteLength" : 924,
            "byteOffset" : 924
        },
        {
            "buffer" : 0,
            "byteLength" : 616,
            "byteOffset" : 1848
        },
        {
            "buffer" : 0,
            "byteLength" : 426,
            "byteOffset" : 2464
        }
    ],
    "buffers" : [
        {
            "byteLength" : 2892,
            "uri" : "data:application/octet-stream;base64,"
        }
    ]
}
